<svg xmlns="http://www.w3.org/2000/svg" viewBox="0 0 240 24" fill="none" preserveAspectRatio="none">
  <g fill="#ff3d8a">
    <rect x="0" y="10" width="2" height="4" rx="1"></rect>
    <rect x="6" y="8" width="2" height="8" rx="1"></rect>
    <rect x="12" y="6" width="2" height="12" rx="1"></rect>
    <rect x="18" y="3" width="2" height="18" rx="1"></rect>
    <rect x="24" y="7" width="2" height="10" rx="1"></rect>
    <rect x="30" y="2" width="2" height="20" rx="1"></rect>
    <rect x="36" y="9" width="2" height="6" rx="1"></rect>
    <rect x="42" y="4" width="2" height="16" rx="1"></rect>
    <rect x="48" y="0" width="2" height="24" rx="1"></rect>
    <rect x="54" y="6" width="2" height="12" rx="1"></rect>
    <rect x="60" y="3" width="2" height="18" rx="1"></rect>
    <rect x="66" y="8" width="2" height="8" rx="1"></rect>
    <rect x="72" y="5" width="2" height="14" rx="1"></rect>
    <rect x="78" y="2" width="2" height="20" rx="1"></rect>
    <rect x="84" y="7" width="2" height="10" rx="1"></rect>
    <rect x="90" y="9" width="2" height="6" rx="1"></rect>
    <rect x="96" y="4" width="2" height="16" rx="1"></rect>
    <rect x="102" y="6" width="2" height="12" rx="1"></rect>
    <rect x="108" y="1" width="2" height="22" rx="1"></rect>
    <rect x="114" y="8" width="2" height="8" rx="1"></rect>
    <rect x="120" y="3" width="2" height="18" rx="1"></rect>
    <rect x="126" y="6" width="2" height="12" rx="1"></rect>
    <rect x="132" y="9" width="2" height="6" rx="1"></rect>
    <rect x="138" y="2" width="2" height="20" rx="1"></rect>
    <rect x="144" y="7" width="2" height="10" rx="1"></rect>
    <rect x="150" y="5" width="2" height="14" rx="1"></rect>
    <rect x="156" y="0" width="2" height="24" rx="1"></rect>
    <rect x="162" y="8" width="2" height="8" rx="1"></rect>
    <rect x="168" y="4" width="2" height="16" rx="1"></rect>
    <rect x="174" y="6" width="2" height="12" rx="1"></rect>
    <rect x="180" y="9" width="2" height="6" rx="1"></rect>
    <rect x="186" y="3" width="2" height="18" rx="1"></rect>
    <rect x="192" y="7" width="2" height="10" rx="1"></rect>
    <rect x="198" y="2" width="2" height="20" rx="1"></rect>
    <rect x="204" y="6" width="2" height="12" rx="1"></rect>
    <rect x="210" y="8" width="2" height="8" rx="1"></rect>
    <rect x="216" y="5" width="2" height="14" rx="1"></rect>
    <rect x="222" y="9" width="2" height="6" rx="1"></rect>
    <rect x="228" y="4" width="2" height="16" rx="1"></rect>
    <rect x="234" y="10" width="2" height="4" rx="1"></rect>
  </g>
</svg>